<svg width="180" height="70" viewBox="0 0 180 70" fill="none" xmlns="http://www.w3.org/2000/svg">
<rect width="180" height="69.1688" rx="34.5844" fill="white"/>
<path d="M29.0877 23.8064V27.689H34.1006V29.8268H29.0877V34.4466H34.2726V36.5845H26.5566V21.6686H34.2726V23.8064H29.0877ZM38.5134 27.7627C39.1851 26.96 40.1762 26.5586 41.4868 26.5586C43.7147 26.5586 44.8287 27.9265 44.8287 30.6623V36.5845H42.4697V31.4487C42.4697 29.4009 41.839 28.377 40.5776 28.377C39.2015 28.377 38.5134 29.4746 38.5134 31.6698V36.5845H36.1298V26.8781H38.5134V27.7627ZM49.7328 36.5845H47.3492V29.0159H46.1943V27.0747H47.3492V23.5853H49.7328V27.0747H51.6249V29.0159H49.7328V36.5845ZM54.075 31.9647C54.075 32.8985 54.2797 33.6685 54.6893 34.2746C55.0988 34.8807 55.664 35.1838 56.3848 35.1838C57.5152 35.1838 58.236 34.6268 58.5473 33.5128L60.808 33.8814C60.0708 35.8964 58.5964 36.9039 56.3848 36.9039C54.9105 36.9039 53.7309 36.437 52.8463 35.5033C51.9781 34.5531 51.5439 33.3244 51.5439 31.8173C51.5439 30.2282 51.9617 28.9586 52.7972 28.0084C53.649 27.0419 54.7958 26.5586 56.2374 26.5586C57.6954 26.5586 58.8258 27.0173 59.6285 27.9347C60.4476 28.8357 60.8572 30.0726 60.8572 31.6453V31.9647H54.075ZM58.6456 30.6378C58.6456 29.9661 58.4326 29.3763 58.0067 28.8685C57.5971 28.3606 57.0565 28.1067 56.3848 28.1067C55.7296 28.1067 55.1889 28.377 54.763 28.9176C54.3535 29.4419 54.1487 30.0152 54.1487 30.6378H58.6456ZM64.5264 27.8856C65.1326 27.0009 66.0827 26.5586 67.3769 26.5586C67.7865 26.5586 68.1633 26.6405 68.5073 26.8043L68.2124 28.9668C67.852 28.7374 67.4588 28.6228 67.0329 28.6228C65.3619 28.6228 64.5264 29.8187 64.5264 32.2104V36.5845H62.1428V26.8781H64.5264V27.8856ZM71.7736 27.7627C72.4617 26.96 73.4855 26.5586 74.8453 26.5586C76.1231 26.5586 77.1797 27.0665 78.0152 28.0822C78.8671 29.0978 79.293 30.2937 79.293 31.6698C79.293 33.1606 78.8753 34.4057 78.0398 35.405C77.2043 36.4043 76.1231 36.9039 74.7961 36.9039C73.3709 36.9039 72.3797 36.4944 71.8228 35.6753L71.7736 40.6882H69.39V26.8781H71.7736V27.7627ZM76.8603 31.719C76.8603 30.8835 76.6227 30.1627 76.1476 29.5565C75.6725 28.934 75.0173 28.6228 74.1818 28.6228C73.4118 28.6228 72.7729 28.934 72.2651 29.5565C71.7572 30.1791 71.5033 30.8999 71.5033 31.719C71.5033 32.5217 71.7736 33.2425 72.3142 33.8814C72.8548 34.5203 73.4773 34.8398 74.1818 34.8398C75.0173 34.8398 75.6725 34.5449 76.1476 33.9551C76.6227 33.3654 76.8603 32.62 76.8603 31.719ZM82.9563 27.8856C83.5625 27.0009 84.5126 26.5586 85.8068 26.5586C86.2164 26.5586 86.5932 26.6405 86.9372 26.8043L86.6423 28.9668C86.2819 28.7374 85.8887 28.6228 85.4628 28.6228C83.7918 28.6228 82.9563 29.8187 82.9563 32.2104V36.5845H80.5727V26.8781H82.9563V27.8856ZM90.7441 22.7989C90.7441 23.1757 90.6049 23.5033 90.3264 23.7818C90.0479 24.0603 89.7202 24.1996 89.3434 24.1996C88.9666 24.1996 88.639 24.0603 88.3605 23.7818C88.082 23.5033 87.9428 23.1757 87.9428 22.7989C87.9428 22.4221 88.082 22.0945 88.3605 21.816C88.639 21.5375 88.9666 21.3982 89.3434 21.3982C89.7202 21.3982 90.0479 21.5375 90.3264 21.816C90.6049 22.0945 90.7441 22.4221 90.7441 22.7989ZM90.5475 36.5845H88.1639V26.8781H90.5475V36.5845ZM101.043 34.6432V36.5845H92.0244L97.2585 28.8193H92.6142V26.8781H101.166L96.0053 34.6432H101.043ZM104.181 31.9647C104.181 32.8985 104.386 33.6685 104.796 34.2746C105.205 34.8807 105.77 35.1838 106.491 35.1838C107.621 35.1838 108.342 34.6268 108.654 33.5128L110.914 33.8814C110.177 35.8964 108.703 36.9039 106.491 36.9039C105.017 36.9039 103.837 36.437 102.953 35.5033C102.084 34.5531 101.65 33.3244 101.65 31.8173C101.65 30.2282 102.068 28.9586 102.903 28.0084C103.755 27.0419 104.902 26.5586 106.344 26.5586C107.802 26.5586 108.932 27.0173 109.735 27.9347C110.554 28.8357 110.963 30.0726 110.963 31.6453V31.9647H104.181ZM108.752 30.6378C108.752 29.9661 108.539 29.3763 108.113 28.8685C107.703 28.3606 107.163 28.1067 106.491 28.1067C105.836 28.1067 105.295 28.377 104.869 28.9176C104.46 29.4419 104.255 30.0152 104.255 30.6378H108.752ZM123.577 26.534L119.842 36.7811H119.228L115.714 26.4849L114.018 36.5845H111.487L113.994 21.2754H115.861L119.744 31.5224L123.454 21.2754H125.347L127.583 36.5845H125.052L123.577 26.534ZM137.974 36.5845H135.639V35.6998C134.951 36.5026 133.927 36.9039 132.567 36.9039C131.208 36.9039 130.118 36.3797 129.299 35.3312C128.497 34.2828 128.095 33.0541 128.095 31.6453C128.095 30.2364 128.505 29.0405 129.324 28.0576C130.159 27.0583 131.224 26.5586 132.518 26.5586C133.894 26.5586 134.935 26.9682 135.639 27.7873V26.8781H137.974V36.5845ZM135.909 31.719C135.909 30.818 135.655 30.0808 135.148 29.5074C134.64 28.9176 133.985 28.6228 133.182 28.6228C132.395 28.6228 131.748 28.9094 131.241 29.4828C130.749 30.0398 130.503 30.7852 130.503 31.719C130.503 32.6528 130.757 33.4063 131.265 33.9797C131.773 34.5531 132.428 34.8398 133.231 34.8398C134.034 34.8398 134.681 34.5613 135.172 34.0043C135.664 33.4473 135.909 32.6855 135.909 31.719ZM142.89 36.5845H140.507V29.0159H139.352V27.0747H140.507V23.5853H142.89V27.0747H144.782V29.0159H142.89V36.5845ZM147.232 31.9647C147.232 32.8985 147.437 33.6685 147.847 34.2746C148.256 34.8807 148.821 35.1838 149.542 35.1838C150.673 35.1838 151.393 34.6268 151.705 33.5128L153.965 33.8814C153.228 35.8964 151.754 36.9039 149.542 36.9039C148.068 36.9039 146.888 36.437 146.004 35.5033C145.135 34.5531 144.701 33.3244 144.701 31.8173C144.701 30.2282 145.119 28.9586 145.954 28.0084C146.806 27.0419 147.953 26.5586 149.395 26.5586C150.853 26.5586 151.983 27.0173 152.786 27.9347C153.605 28.8357 154.014 30.0726 154.014 31.6453V31.9647H147.232ZM151.803 30.6378C151.803 29.9661 151.59 29.3763 151.164 28.8685C150.754 28.3606 150.214 28.1067 149.542 28.1067C148.887 28.1067 148.346 28.377 147.92 28.9176C147.511 29.4419 147.306 30.0152 147.306 30.6378H151.803Z" fill="#FD7770"/>
<path d="M59.8149 45.3874C59.482 44.9179 59.0595 44.6831 58.5473 44.6831C58.223 44.6831 57.9498 44.7813 57.7279 44.9776C57.506 45.174 57.395 45.4386 57.395 45.7715C57.395 46.0959 57.7962 46.4842 58.5986 46.9366C59.4095 47.389 59.8192 47.6153 59.8277 47.6153C60.3996 48.042 60.6856 48.5457 60.6856 49.1261C60.6856 49.92 60.4551 50.5644 59.9942 51.0595C59.5418 51.5461 58.9187 51.7893 58.1248 51.7893C57.1176 51.7893 56.3237 51.2857 55.7433 50.2785L56.5755 49.459C56.6865 49.7578 56.8914 50.0309 57.1901 50.2785C57.4889 50.526 57.7962 50.6498 58.112 50.6498C58.4876 50.6498 58.7821 50.5217 58.9955 50.2657C59.2174 50.0096 59.3284 49.698 59.3284 49.331C59.3284 49.0664 59.2473 48.8359 59.0851 48.6396C58.9229 48.4347 58.3724 48.1274 57.4334 47.7177C56.503 47.2994 56.0378 46.7062 56.0378 45.9379C56.0378 45.2807 56.2512 44.7301 56.678 44.2862C57.1133 43.8338 57.6553 43.6076 58.3041 43.6076C59.2003 43.6076 59.9088 43.8978 60.4295 44.4783L59.8149 45.3874ZM67.3289 46.3477L65.3827 51.6869H65.0626L63.2317 46.3221L62.3482 51.5845H61.0294L62.3354 43.6076H63.3085L65.3315 48.9469L67.2649 43.6076H68.2508L69.416 51.5845H68.0972L67.3289 46.3477ZM71.3987 44.9264V46.9494H74.0107V48.0634H71.3987V50.4705H74.1003V51.5845H70.0799V43.8125H74.1003V44.9264H71.3987ZM84.5811 45.6691C84.1287 45.1228 83.5611 44.8496 82.8782 44.8496C82.1697 44.8496 81.5765 45.1441 81.0985 45.7331C80.6205 46.3135 80.3815 46.9793 80.3815 47.7305C80.3815 48.456 80.6162 49.109 81.0857 49.6895C81.5637 50.2614 82.1569 50.5474 82.8654 50.5474C83.5398 50.5474 84.1117 50.2742 84.5811 49.7279V51.3284C83.9495 51.6357 83.3648 51.7893 82.827 51.7893C81.7515 51.7893 80.8467 51.3924 80.1126 50.5986C79.3785 49.8047 79.0114 48.8572 79.0114 47.7561C79.0114 46.6123 79.3785 45.6349 80.1126 44.824C80.8467 44.0131 81.76 43.6076 82.8526 43.6076C83.4245 43.6076 84.0007 43.757 84.5811 44.0558V45.6691ZM90.3349 51.5845H89.1185V51.1235C88.76 51.5418 88.2265 51.7509 87.518 51.7509C86.8096 51.7509 86.2419 51.4778 85.8151 50.9315C85.3969 50.3852 85.1877 49.745 85.1877 49.0109C85.1877 48.2768 85.4011 47.6537 85.8279 47.1415C86.2633 46.6208 86.8181 46.3605 87.4924 46.3605C88.2095 46.3605 88.7515 46.5739 89.1185 47.0007V46.5269H90.3349V51.5845ZM89.2594 49.0493C89.2594 48.5798 89.1271 48.1957 88.8625 47.8969C88.5978 47.5896 88.2564 47.436 87.8381 47.436C87.4284 47.436 87.0913 47.5854 86.8266 47.8841C86.5706 48.1744 86.4425 48.5627 86.4425 49.0493C86.4425 49.5358 86.5748 49.9285 86.8394 50.2273C87.1041 50.526 87.4455 50.6754 87.8638 50.6754C88.282 50.6754 88.6192 50.5303 88.8753 50.2401C89.1313 49.9498 89.2594 49.5529 89.2594 49.0493ZM92.7174 51.5845H91.4755V42.8394H92.7174V51.5845ZM97.2806 47.8457C96.9647 47.5299 96.6105 47.372 96.2178 47.372C95.7569 47.372 95.3941 47.5384 95.1295 47.8713C94.8649 48.2042 94.7326 48.614 94.7326 49.1005C94.7326 49.5785 94.8819 49.9712 95.1807 50.2785C95.4795 50.5858 95.8422 50.7394 96.269 50.7394C96.6361 50.7394 96.9733 50.5772 97.2806 50.2529V51.4436C96.922 51.6485 96.508 51.7509 96.0386 51.7509C95.3045 51.7509 94.6942 51.4906 94.2076 50.9699C93.7211 50.4492 93.4778 49.8133 93.4778 49.0621C93.4778 48.3109 93.7253 47.675 94.2204 47.1543C94.724 46.6251 95.3514 46.3605 96.1026 46.3605C96.5465 46.3605 96.9391 46.4672 97.2806 46.6806V47.8457ZM99.3915 46.5269V49.267C99.3915 50.2486 99.7329 50.7394 100.416 50.7394C101.099 50.7394 101.44 50.2486 101.44 49.267V46.5269H102.682V49.4974C102.682 50.9998 101.927 51.7509 100.416 51.7509C98.9049 51.7509 98.1495 50.9998 98.1495 49.4974V46.5269H99.3915ZM105.034 51.5845H103.792V42.8394H105.034V51.5845ZM110.941 51.5845H109.725V51.1235C109.366 51.5418 108.833 51.7509 108.124 51.7509C107.416 51.7509 106.848 51.4778 106.421 50.9315C106.003 50.3852 105.794 49.745 105.794 49.0109C105.794 48.2768 106.007 47.6537 106.434 47.1415C106.87 46.6208 107.424 46.3605 108.099 46.3605C108.816 46.3605 109.358 46.5739 109.725 47.0007V46.5269H110.941V51.5845ZM109.866 49.0493C109.866 48.5798 109.733 48.1957 109.469 47.8969C109.204 47.5896 108.863 47.436 108.444 47.436C108.035 47.436 107.698 47.5854 107.433 47.8841C107.177 48.1744 107.049 48.5627 107.049 49.0493C107.049 49.5358 107.181 49.9285 107.446 50.2273C107.71 50.526 108.052 50.6754 108.47 50.6754C108.888 50.6754 109.226 50.5303 109.482 50.2401C109.738 49.9498 109.866 49.5529 109.866 49.0493ZM113.503 51.5845H112.261V47.6409H111.659V46.6293H112.261V44.8112H113.503V46.6293H114.489V47.6409H113.503V51.5845ZM119.773 49.0493C119.773 49.8431 119.53 50.4919 119.043 50.9955C118.557 51.4991 117.917 51.7509 117.123 51.7509C116.337 51.7509 115.697 51.4991 115.202 50.9955C114.707 50.4919 114.46 49.8474 114.46 49.0621C114.46 48.2683 114.703 47.6195 115.189 47.1159C115.676 46.6123 116.316 46.3605 117.11 46.3605C117.904 46.3605 118.544 46.6123 119.031 47.1159C119.526 47.611 119.773 48.2554 119.773 49.0493ZM115.714 49.0749C115.714 49.5444 115.847 49.9285 116.111 50.2273C116.376 50.526 116.717 50.6754 117.136 50.6754C117.554 50.6754 117.887 50.5175 118.134 50.2016C118.39 49.8773 118.518 49.4974 118.518 49.0621C118.518 48.6182 118.39 48.2384 118.134 47.9225C117.878 47.5982 117.541 47.436 117.123 47.436C116.713 47.436 116.376 47.5896 116.111 47.8969C115.847 48.2042 115.714 48.5969 115.714 49.0749ZM121.699 47.0519C122.015 46.5909 122.51 46.3605 123.184 46.3605C123.398 46.3605 123.594 46.4031 123.773 46.4885L123.62 47.6153C123.432 47.4957 123.227 47.436 123.005 47.436C122.134 47.436 121.699 48.0591 121.699 49.3054V51.5845H120.457V46.5269H121.699V47.0519Z" fill="#FD7770"/>
</svg>
