<svg width="246" height="136" viewBox="0 0 246 136" fill="none" xmlns="http://www.w3.org/2000/svg">
<path d="M221.056 61.4386C225.483 64.6926 225.483 71.3068 221.056 74.5608L213.799 79.8945C211.358 81.6889 210.115 84.6904 210.573 87.6854L211.945 96.6653C212.774 102.097 208.097 106.774 202.665 105.945L193.685 104.573C190.69 104.115 187.689 105.358 185.895 107.799L180.561 115.056C177.307 119.483 170.693 119.483 167.439 115.056L162.105 107.799C160.311 105.358 157.309 104.115 154.314 104.573L145.334 105.945C139.903 106.774 135.225 102.097 136.055 96.6653L137.427 87.6854C137.884 84.6904 136.641 81.6889 134.2 79.8945L126.944 74.5608C122.517 71.3068 122.517 64.6926 126.944 61.4386L134.2 56.1049C136.641 54.3105 137.884 51.3091 137.427 48.314L136.055 39.3341C135.225 33.9025 139.903 29.2251 145.334 30.0549L154.314 31.4268C157.309 31.8844 160.311 30.6413 162.105 28.2L167.439 20.9437C170.693 16.5168 177.307 16.5168 180.561 20.9437L185.895 28.2C187.689 30.6413 190.69 31.8844 193.685 31.4268L202.665 30.0549C208.097 29.2251 212.774 33.9025 211.945 39.3341L210.573 48.3141C210.115 51.3091 211.358 54.3105 213.799 56.1049L221.056 61.4386Z" stroke="#F3E6DD" stroke-width="12.2143" stroke-linecap="round" stroke-linejoin="round"/>
<path d="M173.996 88.688C185.422 88.688 194.684 79.4258 194.684 68.0003C194.684 56.5747 185.422 47.3125 173.996 47.3125C162.571 47.3125 153.309 56.5747 153.309 68.0003C153.309 79.4258 162.571 88.688 173.996 88.688Z" fill="#F3E6DD" stroke="#F3E6DD" stroke-width="12.2143" stroke-linecap="round" stroke-linejoin="round"/>
<rect x="5" y="5" width="236" height="126" rx="63" stroke="#F3E6DD" stroke-width="10"/>
</svg>
