<svg width="405" height="522" viewBox="0 0 405 522" fill="none" xmlns="http://www.w3.org/2000/svg">
<circle cx="202.062" cy="202.062" r="188.409" stroke="#FD7770" stroke-width="27.3056"/>
<path d="M270.599 213.529C268.066 202.358 275.067 191.249 286.237 188.715L301.406 255.592L281.181 260.18L270.599 213.529Z" fill="#FD7770"/>
<path d="M295.093 190.248C292.053 176.843 300.454 163.512 313.859 160.471L333.768 248.248L309.497 253.753L295.093 190.248Z" fill="#FD7770"/>
<rect x="318.158" y="141.917" width="24.8874" height="107.15" transform="rotate(-12.7795 318.158 141.917)" fill="#FD7770"/>
<path d="M138.277 77.1633C126.314 75.7329 114.195 77.8821 103.453 83.3391L131.045 137.651L76.7324 165.243C82.1895 175.985 90.7094 184.867 101.215 190.767C111.66 196.633 123.601 199.288 135.544 198.404V176.555C135.544 166.502 143.694 158.352 153.748 158.352H188.339C188.555 157.754 188.762 157.152 188.959 156.546C192.696 145.091 192.953 132.786 189.696 121.186C186.439 109.586 179.816 99.2116 170.664 91.3757C161.511 83.5398 150.241 78.5938 138.277 77.1633Z" fill="#FD7770"/>
<path fill-rule="evenodd" clip-rule="evenodd" d="M160.789 165.677H244.782C254.249 165.677 261.924 173.352 261.924 182.819V334.398C261.924 343.865 254.249 351.54 244.782 351.54H160.789C151.322 351.54 143.648 343.865 143.648 334.398V182.819C143.648 173.352 151.322 165.677 160.789 165.677ZM236.337 175.056H169.373C163.09 175.056 157.996 180.15 157.996 186.433V235.453C157.996 241.737 163.09 246.831 169.373 246.831H236.337C242.62 246.831 247.714 241.737 247.714 235.453V186.433C247.714 180.15 242.62 175.056 236.337 175.056ZM246.609 255.408H224.245C222.988 255.408 221.969 256.427 221.969 257.684V297.992C221.969 299.249 222.988 300.267 224.245 300.267H246.609C247.866 300.267 248.885 299.249 248.885 297.992V257.684C248.885 256.427 247.866 255.408 246.609 255.408ZM246.999 310.02H224.245C222.988 310.02 221.969 311.039 221.969 312.295V340.511C221.969 341.768 222.988 342.787 224.245 342.787H246.999C248.256 342.787 249.275 341.768 249.275 340.511V312.295C249.275 311.039 248.256 310.02 246.999 310.02ZM183.742 257.966C183.742 256.553 182.597 255.408 181.184 255.408H158.994C157.582 255.408 156.436 256.553 156.436 257.966V280.156C156.436 281.569 157.582 282.714 158.994 282.714H181.184C182.597 282.714 183.742 281.569 183.742 280.156V257.966ZM216.509 257.966C216.509 256.553 215.364 255.408 213.951 255.408H191.761C190.348 255.408 189.203 256.553 189.203 257.966V280.156C189.203 281.569 190.348 282.714 191.761 282.714H213.951C215.364 282.714 216.509 281.569 216.509 280.156V257.966ZM183.742 290.734C183.742 289.321 182.597 288.176 181.184 288.176H158.994C157.582 288.176 156.436 289.321 156.436 290.734V312.924C156.436 314.336 157.582 315.481 158.994 315.481H181.184C182.597 315.481 183.742 314.336 183.742 312.924V290.734ZM216.509 290.734C216.509 289.321 215.364 288.176 213.951 288.176H191.761C190.348 288.176 189.203 289.321 189.203 290.734V312.924C189.203 314.336 190.348 315.481 191.761 315.481H213.951C215.364 315.481 216.509 314.336 216.509 312.924V290.734ZM216.509 323.501C216.509 322.089 215.364 320.944 213.951 320.944H191.761C190.348 320.944 189.203 322.089 189.203 323.501V340.23C189.203 341.643 190.348 342.788 191.761 342.788H213.951C215.364 342.788 216.509 341.643 216.509 340.23V323.501ZM183.742 323.501C183.742 322.089 182.597 320.944 181.184 320.944H158.994C157.582 320.944 156.436 322.089 156.436 323.501V340.23C156.436 341.643 157.582 342.788 158.994 342.788H181.184C182.597 342.788 183.742 341.643 183.742 340.23V323.501Z" fill="#FD7770"/>
<path d="M188.695 205.832V211.192H195.616V214.144H188.695V220.522H195.854V223.473H185.201V202.88H195.854V205.832H188.695Z" fill="#FD7770"/>
<path d="M214.057 209.598L208.9 223.744H208.052L203.201 209.53L200.86 223.473H197.366L200.826 202.338H203.405L208.765 216.484L213.887 202.338H216.5L219.587 223.473H216.093L214.057 209.598Z" fill="#FD7770"/>
<path d="M282.743 76.2255C282.335 73.7774 280.02 72.1235 277.572 72.5316L237.677 79.1807C235.228 79.5887 233.575 81.9041 233.983 84.3522C234.391 86.8004 236.706 88.4542 239.155 88.0461L268.348 83.1805L214.491 158.58H225.536L275.661 88.4048L280.527 117.598C280.934 120.046 283.25 121.7 285.698 121.292C288.146 120.884 289.8 118.568 289.392 116.12L282.743 76.2255Z" fill="#FD7770"/>
<path d="M110.82 303.72C109.377 305.739 109.845 308.545 111.865 309.988C113.884 311.43 116.691 310.963 118.133 308.943L135.56 284.547V269.084L110.82 303.72Z" fill="#FD7770"/>
<circle cx="193.87" cy="79.187" r="13.6528" fill="#FD7770"/>
<circle cx="79.1858" cy="128.337" r="8.19168" fill="#FD7770"/>
<path d="M307.916 306.809C310.274 304.451 311.816 301.401 312.317 298.105C312.819 294.808 312.253 291.437 310.703 288.485C309.153 285.533 306.699 283.153 303.701 281.694C300.703 280.235 297.316 279.773 294.036 280.375C290.757 280.977 287.755 282.612 285.471 285.041C283.186 287.47 281.738 290.566 281.338 293.877C280.937 297.187 281.606 300.539 283.246 303.442C284.886 306.346 287.411 308.649 290.453 310.016L294.045 302.018C292.709 301.418 291.6 300.406 290.88 299.131C290.159 297.856 289.865 296.383 290.041 294.929C290.217 293.475 290.853 292.115 291.857 291.048C292.86 289.981 294.179 289.263 295.62 288.998C297.06 288.734 298.548 288.937 299.865 289.578C301.182 290.218 302.26 291.264 302.941 292.561C303.622 293.857 303.87 295.338 303.65 296.786C303.43 298.234 302.752 299.574 301.716 300.61L307.916 306.809Z" fill="#FD7770"/>
<path fill-rule="evenodd" clip-rule="evenodd" d="M81.9169 273.06C96.9974 273.06 109.223 260.835 109.223 245.754C109.223 230.674 96.9974 218.449 81.9169 218.449C66.8365 218.449 54.6113 230.674 54.6113 245.754C54.6113 260.835 66.8365 273.06 81.9169 273.06ZM72.2821 244.664L76.0806 253.136L76.5899 254.267C77.3336 255.926 78.9468 256.198 80.1931 254.875L91.1519 243.237C92.3982 241.913 92.8056 239.495 92.0618 237.837C91.3181 236.178 89.7049 235.906 88.4587 237.23L79.5565 246.683L76.5967 240.082C75.8857 238.496 74.3434 238.236 73.152 239.501C71.9605 240.767 71.5711 243.078 72.2821 244.664Z" fill="#FD7770"/>
<path d="M47.2808 438.817V448.465H59.7381V453.778H47.2808V465.258H60.1656V470.571H40.991V433.504H60.1656V438.817H47.2808ZM70.7041 448.648C72.3732 446.654 74.8362 445.656 78.093 445.656C83.6296 445.656 86.3979 449.055 86.3979 455.854V470.571H80.5356V457.808C80.5356 452.719 78.9683 450.175 75.8336 450.175C72.4139 450.175 70.7041 452.903 70.7041 458.358V470.571H64.7808V446.45H70.7041V448.648ZM98.5847 470.571H92.6614V451.763H89.7913V446.939H92.6614V438.267H98.5847V446.939H103.287V451.763H98.5847V470.571ZM109.375 459.091C109.375 461.411 109.884 463.324 110.902 464.831C111.92 466.337 113.324 467.09 115.115 467.09C117.924 467.09 119.716 465.706 120.489 462.938L126.107 463.854C124.275 468.861 120.611 471.365 115.115 471.365C111.451 471.365 108.52 470.204 106.322 467.884C104.164 465.523 103.085 462.469 103.085 458.724C103.085 454.775 104.124 451.62 106.2 449.259C108.317 446.857 111.166 445.656 114.749 445.656C118.372 445.656 121.181 446.796 123.176 449.076C125.211 451.315 126.229 454.388 126.229 458.297V459.091H109.375ZM120.733 455.793C120.733 454.124 120.204 452.658 119.146 451.396C118.128 450.134 116.784 449.503 115.115 449.503C113.487 449.503 112.143 450.175 111.085 451.518C110.067 452.821 109.558 454.246 109.558 455.793H120.733ZM135.347 448.954C136.854 446.755 139.215 445.656 142.431 445.656C143.449 445.656 144.385 445.86 145.24 446.267L144.507 451.641C143.612 451.071 142.635 450.786 141.576 450.786C137.424 450.786 135.347 453.757 135.347 459.701V470.571H129.424V446.45H135.347V448.954ZM153.357 448.648C155.067 446.654 157.611 445.656 160.99 445.656C164.166 445.656 166.791 446.918 168.868 449.442C170.985 451.966 172.043 454.938 172.043 458.358C172.043 462.062 171.005 465.156 168.929 467.64C166.852 470.123 164.166 471.365 160.868 471.365C157.326 471.365 154.863 470.347 153.479 468.311L153.357 480.769H147.434V446.45H153.357V448.648ZM165.998 458.48C165.998 456.404 165.407 454.612 164.227 453.106C163.046 451.559 161.418 450.786 159.341 450.786C157.428 450.786 155.84 451.559 154.578 453.106C153.316 454.653 152.685 456.444 152.685 458.48C152.685 460.475 153.357 462.266 154.7 463.854C156.044 465.441 157.591 466.235 159.341 466.235C161.418 466.235 163.046 465.502 164.227 464.037C165.407 462.571 165.998 460.719 165.998 458.48ZM181.147 448.954C182.653 446.755 185.014 445.656 188.23 445.656C189.248 445.656 190.184 445.86 191.039 446.267L190.306 451.641C189.411 451.071 188.434 450.786 187.375 450.786C183.223 450.786 181.147 453.757 181.147 459.701V470.571H175.223V446.45H181.147V448.954ZM200.499 436.313C200.499 437.249 200.153 438.064 199.461 438.756C198.769 439.448 197.955 439.794 197.019 439.794C196.082 439.794 195.268 439.448 194.576 438.756C193.884 438.064 193.538 437.249 193.538 436.313C193.538 435.377 193.884 434.563 194.576 433.871C195.268 433.178 196.082 432.832 197.019 432.832C197.955 432.832 198.769 433.178 199.461 433.871C200.153 434.563 200.499 435.377 200.499 436.313ZM200.011 470.571H194.088V446.45H200.011V470.571ZM226.092 465.747V470.571H203.681L216.688 451.274H205.147V446.45H226.397L213.574 465.747H226.092ZM233.891 459.091C233.891 461.411 234.4 463.324 235.418 464.831C236.436 466.337 237.84 467.09 239.631 467.09C242.44 467.09 244.232 465.706 245.005 462.938L250.623 463.854C248.791 468.861 245.127 471.365 239.631 471.365C235.967 471.365 233.036 470.204 230.838 467.884C228.68 465.523 227.601 462.469 227.601 458.724C227.601 454.775 228.64 451.62 230.716 449.259C232.833 446.857 235.682 445.656 239.265 445.656C242.888 445.656 245.697 446.796 247.692 449.076C249.727 451.315 250.745 454.388 250.745 458.297V459.091H233.891ZM245.249 455.793C245.249 454.124 244.72 452.658 243.662 451.396C242.644 450.134 241.3 449.503 239.631 449.503C238.003 449.503 236.66 450.175 235.601 451.518C234.583 452.821 234.074 454.246 234.074 455.793H245.249ZM282.091 445.595L272.809 471.059H271.283L262.55 445.473L258.337 470.571H252.047L258.276 432.527H262.917L272.565 457.991L281.786 432.527H286.488L292.045 470.571H285.755L282.091 445.595ZM317.867 470.571H312.065V468.372C310.356 470.367 307.811 471.365 304.432 471.365C301.053 471.365 298.346 470.062 296.31 467.456C294.316 464.851 293.318 461.798 293.318 458.297C293.318 454.796 294.336 451.824 296.372 449.381C298.448 446.898 301.094 445.656 304.31 445.656C307.73 445.656 310.315 446.674 312.065 448.709V446.45H317.867V470.571ZM312.737 458.48C312.737 456.241 312.106 454.409 310.844 452.984C309.582 451.518 307.954 450.786 305.959 450.786C304.005 450.786 302.397 451.498 301.135 452.923C299.913 454.307 299.303 456.159 299.303 458.48C299.303 460.8 299.934 462.673 301.196 464.098C302.458 465.523 304.086 466.235 306.081 466.235C308.076 466.235 309.684 465.543 310.905 464.159C312.126 462.775 312.737 460.882 312.737 458.48ZM330.084 470.571H324.161V451.763H321.291V446.939H324.161V438.267H330.084V446.939H334.786V451.763H330.084V470.571ZM340.875 459.091C340.875 461.411 341.384 463.324 342.401 464.831C343.419 466.337 344.824 467.09 346.615 467.09C349.424 467.09 351.215 465.706 351.989 462.938L357.607 463.854C355.775 468.861 352.111 471.365 346.615 471.365C342.951 471.365 340.02 470.204 337.822 467.884C335.664 465.523 334.585 462.469 334.585 458.724C334.585 454.775 335.623 451.62 337.699 449.259C339.816 446.857 342.666 445.656 346.249 445.656C349.872 445.656 352.681 446.796 354.676 449.076C356.711 451.315 357.729 454.388 357.729 458.297V459.091H340.875ZM352.233 455.793C352.233 454.124 351.704 452.658 350.645 451.396C349.628 450.134 348.284 449.503 346.615 449.503C344.987 449.503 343.643 450.175 342.585 451.518C341.567 452.821 341.058 454.246 341.058 455.793H352.233Z" fill="#FD7770"/>
<path d="M101.509 494.546C100.43 493.023 99.0594 492.262 97.3984 492.262C96.3465 492.262 95.4606 492.58 94.7409 493.217C94.0211 493.854 93.6612 494.712 93.6612 495.791C93.6612 496.843 94.9623 498.103 97.5645 499.57C100.194 501.037 101.523 501.771 101.551 501.771C103.406 503.155 104.333 504.788 104.333 506.671C104.333 509.245 103.586 511.335 102.091 512.941C100.624 514.519 98.6027 515.308 96.0281 515.308C92.7615 515.308 90.187 513.675 88.3046 510.408L91.0037 507.75C91.3636 508.719 92.0279 509.605 92.9969 510.408C93.9658 511.211 94.9623 511.612 95.9866 511.612C97.2047 511.612 98.1597 511.197 98.8518 510.367C99.5716 509.536 99.9314 508.526 99.9314 507.335C99.9314 506.477 99.6684 505.73 99.1425 505.093C98.6165 504.429 96.8309 503.432 93.7858 502.103C90.7684 500.747 89.2597 498.823 89.2597 496.331C89.2597 494.2 89.9517 492.414 91.3359 490.975C92.7477 489.507 94.5056 488.774 96.6095 488.774C99.5162 488.774 101.814 489.715 103.503 491.597L101.509 494.546ZM125.878 497.66L119.566 514.976H118.528L112.59 497.577L109.725 514.644H105.448L109.684 488.774H112.839L119.4 506.09L125.67 488.774H128.868L132.647 514.644H128.37L125.878 497.66ZM139.077 493.051V499.612H147.548V503.224H139.077V511.031H147.838V514.644H134.8V489.438H147.838V493.051H139.077ZM181.829 495.459C180.361 493.688 178.521 492.802 176.306 492.802C174.008 492.802 172.084 493.757 170.534 495.667C168.984 497.549 168.209 499.709 168.209 502.145C168.209 504.498 168.97 506.615 170.492 508.498C172.043 510.353 173.967 511.28 176.264 511.28C178.451 511.28 180.306 510.394 181.829 508.623V513.813C179.78 514.81 177.884 515.308 176.14 515.308C172.652 515.308 169.717 514.021 167.337 511.446C164.956 508.872 163.766 505.799 163.766 502.228C163.766 498.518 164.956 495.349 167.337 492.719C169.717 490.089 172.679 488.774 176.223 488.774C178.078 488.774 179.946 489.258 181.829 490.227V495.459ZM200.489 514.644H196.544V513.149C195.381 514.505 193.651 515.183 191.353 515.183C189.056 515.183 187.215 514.298 185.831 512.526C184.474 510.754 183.796 508.678 183.796 506.297C183.796 503.916 184.488 501.896 185.872 500.235C187.284 498.546 189.083 497.702 191.27 497.702C193.596 497.702 195.354 498.394 196.544 499.778V498.241H200.489V514.644ZM197.001 506.422C197.001 504.899 196.572 503.653 195.713 502.685C194.855 501.688 193.748 501.19 192.391 501.19C191.063 501.19 189.969 501.674 189.111 502.643C188.281 503.584 187.865 504.844 187.865 506.422C187.865 508 188.294 509.273 189.153 510.242C190.011 511.211 191.118 511.695 192.474 511.695C193.831 511.695 194.924 511.225 195.755 510.283C196.585 509.342 197.001 508.055 197.001 506.422ZM208.215 514.644H204.188V486.282H208.215V514.644ZM223.014 502.518C221.99 501.494 220.841 500.982 219.568 500.982C218.073 500.982 216.896 501.522 216.038 502.601C215.18 503.681 214.751 505.01 214.751 506.588C214.751 508.138 215.235 509.411 216.204 510.408C217.173 511.405 218.35 511.903 219.734 511.903C220.924 511.903 222.017 511.377 223.014 510.325V514.187C221.851 514.851 220.509 515.183 218.986 515.183C216.605 515.183 214.626 514.339 213.048 512.65C211.47 510.962 210.681 508.899 210.681 506.463C210.681 504.027 211.484 501.965 213.09 500.276C214.723 498.56 216.758 497.702 219.194 497.702C220.633 497.702 221.907 498.048 223.014 498.74V502.518ZM229.86 498.241V507.128C229.86 510.311 230.967 511.903 233.182 511.903C235.397 511.903 236.504 510.311 236.504 507.128V498.241H240.532V507.875C240.532 512.747 238.082 515.183 233.182 515.183C228.282 515.183 225.832 512.747 225.832 507.875V498.241H229.86ZM248.158 514.644H244.131V486.282H248.158V514.644ZM267.317 514.644H263.372V513.149C262.21 514.505 260.479 515.183 258.182 515.183C255.884 515.183 254.043 514.298 252.659 512.526C251.303 510.754 250.624 508.678 250.624 506.297C250.624 503.916 251.316 501.896 252.7 500.235C254.112 498.546 255.912 497.702 258.099 497.702C260.424 497.702 262.182 498.394 263.372 499.778V498.241H267.317V514.644ZM263.829 506.422C263.829 504.899 263.4 503.653 262.542 502.685C261.684 501.688 260.576 501.19 259.22 501.19C257.891 501.19 256.798 501.674 255.939 502.643C255.109 503.584 254.694 504.844 254.694 506.422C254.694 508 255.123 509.273 255.981 510.242C256.839 511.211 257.946 511.695 259.303 511.695C260.659 511.695 261.753 511.225 262.583 510.283C263.414 509.342 263.829 508.055 263.829 506.422ZM275.625 514.644H271.597V501.854H269.646V498.574H271.597V492.677H275.625V498.574H278.823V501.854H275.625V514.644ZM295.96 506.422C295.96 508.996 295.171 511.1 293.593 512.733C292.015 514.367 289.939 515.183 287.364 515.183C284.817 515.183 282.741 514.367 281.136 512.733C279.53 511.1 278.727 509.01 278.727 506.463C278.727 503.889 279.516 501.785 281.094 500.152C282.672 498.518 284.748 497.702 287.323 497.702C289.897 497.702 291.974 498.518 293.551 500.152C295.157 501.757 295.96 503.847 295.96 506.422ZM282.797 506.505C282.797 508.027 283.226 509.273 284.084 510.242C284.942 511.211 286.049 511.695 287.406 511.695C288.762 511.695 289.842 511.183 290.645 510.159C291.475 509.107 291.89 507.875 291.89 506.463C291.89 505.024 291.475 503.792 290.645 502.768C289.814 501.716 288.721 501.19 287.364 501.19C286.036 501.19 284.942 501.688 284.084 502.685C283.226 503.681 282.797 504.955 282.797 506.505ZM302.205 499.944C303.23 498.449 304.835 497.702 307.022 497.702C307.714 497.702 308.351 497.84 308.932 498.117L308.434 501.771C307.825 501.383 307.161 501.19 306.441 501.19C303.617 501.19 302.205 503.21 302.205 507.252V514.644H298.178V498.241H302.205V499.944Z" fill="#FD7770"/>
</svg>
